<svg xmlns="http://www.w3.org/2000/svg" viewBox="0 0 39.91 82.57"><defs><style>.cls-1{fill:#015e95;}</style></defs><g id="Capa_2" data-name="Capa 2"><g id="Layer_1" data-name="Layer 1"><path class="cls-1" d="M25.31,82.57c-3.94,0-7.32-2.81-9-5.8-1.91-3.43-2.22-7.3-2.5-10.71L10.65,26.31a21.26,21.26,0,0,1,.41-8A8.76,8.76,0,0,1,17.76,12c4.06-.62,7.45,2.34,8.87,5.35s1.45,6.26,1.49,8.93l.56,37.19a2.32,2.32,0,1,1-4.64.07l-.56-37.19c0-2.45-.08-5-1-7-.72-1.51-2.36-3-4-2.74-1.44.22-2.54,1.78-3,3.13a17.26,17.26,0,0,0-.23,6.24l3.18,39.75c.25,3.09.5,6.27,1.92,8.82,1.11,2,3.51,3.84,5.75,3.33s4.09-3.39,5.12-8.47C34.31,54.11,35.6,37,35.19,17c-.07-3.56-.32-7.23-2.41-9.43S26.64,4.88,23.1,4.72c-6-.28-12.46,0-15.78,4.07C5,11.72,4.7,16,4.66,20.19A232.83,232.83,0,0,0,9,67.24a2.32,2.32,0,0,1-4.56.89A237.79,237.79,0,0,1,0,20.14C.07,15.38.4,10,3.72,5.87,8.33.18,16.22-.24,23.31.08c4.45.21,9.47.72,12.84,4.28,3.23,3.41,3.6,8.26,3.68,12.54.42,20.33-.9,37.79-4,53.38-.53,2.63-2.14,10.62-8.65,12.09A8.36,8.36,0,0,1,25.31,82.57Z"/></g></g></svg>